<svg xmlns="http://www.w3.org/2000/svg" version="1.1" xmlns:xlink="http://www.w3.org/1999/xlink" width="512" height="512" x="0" y="0" viewBox="0 0 512 512" style="enable-background:new 0 0 512 512" xml:space="preserve" class=""><g><path d="M473.98 352.317H38.02V27.881c0-11.199 9.078-20.277 20.277-20.277h395.406c11.199 0 20.277 9.078 20.277 20.277v324.436z" style="" fill="#d9ccbc" data-original="#d9ccbc" class=""></path><path d="M382.733 306.693H108.99c-16.799 0-30.416-13.617-30.416-30.416V83.644c0-16.799 13.617-30.416 30.416-30.416h273.743c16.799 0 30.416 13.617 30.416 30.416v192.634c0 16.798-13.618 30.415-30.416 30.415z" style="" fill="#00d7df" data-original="#00d7df" class=""></path><path d="M7.604 352.317h496.792v152.079H7.604z" style="" fill="#d9ccbc" data-original="#d9ccbc" class=""></path><path d="M38.02 382.733h40.554v30.416H38.02z" style="" fill="#f25462" data-original="#f25462"></path><path d="M98.851 296.554V88.713c0-8.399 6.809-15.208 15.208-15.208H403.01c3.072 0 6.037.46 8.832 1.307-3.785-12.49-15.383-21.584-29.109-21.584H108.99c-16.799 0-30.416 13.617-30.416 30.416v192.634c0 13.726 9.094 25.324 21.584 29.109a30.454 30.454 0 0 1-1.307-8.833z" style="" fill="#00b2df" data-original="#00b2df" class=""></path><path d="M38.02 332.04h435.96v20.277H38.02zM7.604 484.119h496.792v20.277H7.604zM270.194 403.01h202.772v20.277H270.194zM412.135 433.426h40.554v20.277h-40.554z" style="" fill="#c0ab91" data-original="#c0ab91"></path><path d="M451.168 114.059H435.96V98.851h15.208v15.208zm0-30.415H435.96V32.95h15.208v50.694z" style="" fill="#ffffff" data-original="#ffffff"></path><path d="M382.733 45.624H108.99c-20.965 0-38.02 17.055-38.02 38.02v192.634c0 20.965 17.055 38.02 38.02 38.02h273.743c20.965 0 38.02-17.055 38.02-38.02V83.644c0-20.965-17.056-38.02-38.02-38.02zm22.812 230.653c0 12.578-10.233 22.812-22.812 22.812H108.99c-12.579 0-22.812-10.234-22.812-22.812V83.644c0-12.578 10.233-22.812 22.812-22.812h273.743c12.579 0 22.812 10.234 22.812 22.812v192.633z" fill="#000000" opacity="1" data-original="#000000" class=""></path><path d="M481.584 344.713V27.881C481.584 12.508 469.077 0 453.703 0H58.297C42.923 0 30.416 12.508 30.416 27.881v316.832H0V512h512V344.713h-30.416zM45.624 27.881c0-6.989 5.685-12.673 12.673-12.673h395.406c6.989 0 12.673 5.685 12.673 12.673v316.832H45.624V27.881zm451.168 468.911H228.119v-28.895h-15.208v28.895h-15.208v-28.895h-15.208v28.895h-15.208v-28.895h-15.208v28.895h-15.208v-28.895h-15.208v28.895h-15.208v-28.895H91.248v28.895H76.04v-28.895H60.832v28.895H45.624v-28.895H30.416v28.895H15.208V359.921H496.792v136.871z" fill="#000000" opacity="1" data-original="#000000" class=""></path><path d="M212.911 437.481h15.208v15.208h-15.208zM182.495 437.481h15.208v15.208h-15.208zM152.079 437.481h15.208v15.208h-15.208zM121.663 437.481h15.208v15.208h-15.208zM91.248 437.481h15.208v15.208H91.248zM60.832 437.481H76.04v15.208H60.832zM30.416 437.481h15.208v15.208H30.416zM435.96 216.966h15.208v15.208H435.96zM435.96 257.521h15.208v15.208H435.96zM270.194 395.406h202.772v15.208H270.194zM412.135 425.822h40.554v15.208h-40.554zM290.471 425.822h15.208v15.208h-15.208zM30.416 420.753h55.762v-45.624H30.416v45.624zm15.208-30.416H70.97v15.208H45.624v-15.208zM102.907 95.303h182.495v15.208H102.907zM102.907 125.719h223.05v15.208h-223.05zM102.907 156.135h152.079v15.208H102.907zM102.907 186.551h202.772v15.208H102.907zM102.907 216.966h15.208v15.208h-15.208z" fill="#000000" opacity="1" data-original="#000000" class=""></path></g></svg>